<?xml version="1.0" encoding="iso-8859-1"?>
<!-- Uploaded to: SVG Repo, www.svgrepo.com, Generator: SVG Repo Mixer Tools -->
<svg fill="#000000" height="800px" width="800px" version="1.1" id="Layer_1" xmlns="http://www.w3.org/2000/svg" xmlns:xlink="http://www.w3.org/1999/xlink" 
	 viewBox="0 0 322 322" xml:space="preserve">
<g id="XMLID_7_">
	<path id="XMLID_8_" d="M275.445,135.123c0.387-45.398-38.279-87.016-86.192-92.771c-0.953-0.113-1.991-0.285-3.09-0.467
		c-2.372-0.393-4.825-0.797-7.3-0.797c-9.82,0-12.445,6.898-13.136,11.012c-0.672,4-0.031,7.359,1.902,9.988
		c3.252,4.422,8.974,5.207,13.57,5.836c1.347,0.186,2.618,0.359,3.682,0.598c43.048,9.619,57.543,24.742,64.627,67.424
		c0.173,1.043,0.251,2.328,0.334,3.691c0.309,5.102,0.953,15.717,12.365,15.717h0.001c0.95,0,1.971-0.082,3.034-0.244
		c10.627-1.615,10.294-11.318,10.134-15.98c-0.045-1.313-0.088-2.555,0.023-3.381C275.429,135.541,275.444,135.332,275.445,135.123z
		"/>
	<path id="XMLID_9_" d="M176.077,25.688c1.275,0.092,2.482,0.18,3.487,0.334c70.689,10.871,103.198,44.363,112.207,115.605
		c0.153,1.211,0.177,2.688,0.202,4.252c0.09,5.566,0.275,17.145,12.71,17.385l0.386,0.004c3.9,0,7.002-1.176,9.221-3.498
		c3.871-4.049,3.601-10.064,3.383-14.898c-0.053-1.186-0.104-2.303-0.091-3.281C318.481,68.729,255.411,2.658,182.614,0.201
		c-0.302-0.01-0.59,0.006-0.881,0.047c-0.143,0.021-0.408,0.047-0.862,0.047c-0.726,0-1.619-0.063-2.566-0.127
		C177.16,0.09,175.862,0,174.546,0c-11.593,0-13.797,8.24-14.079,13.152C159.817,24.504,170.799,25.303,176.077,25.688z"/>
	<path id="XMLID_10_" d="M288.36,233.703c-1.503-1.148-3.057-2.336-4.512-3.508c-7.718-6.211-15.929-11.936-23.87-17.473
		c-1.648-1.148-3.296-2.297-4.938-3.449c-10.172-7.145-19.317-10.617-27.957-10.617c-11.637,0-21.783,6.43-30.157,19.109
		c-3.71,5.621-8.211,8.354-13.758,8.354c-3.28,0-7.007-0.936-11.076-2.783c-32.833-14.889-56.278-37.717-69.685-67.85
		c-6.481-14.564-4.38-24.084,7.026-31.832c6.477-4.396,18.533-12.58,17.679-28.252c-0.967-17.797-40.235-71.346-56.78-77.428
		c-7.005-2.576-14.365-2.6-21.915-0.06c-19.02,6.394-32.669,17.623-39.475,32.471C2.365,64.732,2.662,81.578,9.801,99.102
		c20.638,50.666,49.654,94.84,86.245,131.293c35.816,35.684,79.837,64.914,130.839,86.875c4.597,1.978,9.419,3.057,12.94,3.844
		c1.2,0.27,2.236,0.5,2.991,0.707c0.415,0.113,0.843,0.174,1.272,0.178l0.403,0.002c0.001,0,0,0,0.002,0
		c23.988,0,52.791-21.92,61.637-46.91C313.88,253.209,299.73,242.393,288.36,233.703z"/>
	<path id="XMLID_11_" d="M186.687,83.564c-4.107,0.104-12.654,0.316-15.653,9.021c-1.403,4.068-1.235,7.6,0.5,10.498
		c2.546,4.252,7.424,5.555,11.861,6.27c16.091,2.582,24.355,11.48,26.008,28c0.768,7.703,5.955,13.082,12.615,13.082h0.001
		c0.492,0,0.995-0.029,1.496-0.09c8.01-0.953,11.893-6.838,11.542-17.49c0.128-11.117-5.69-23.738-15.585-33.791
		C209.543,88.98,197.574,83.301,186.687,83.564z"/>
</g>
</svg>